<svg xmlns="http://www.w3.org/2000/svg" version="1.1" xmlns:xlink="http://www.w3.org/1999/xlink" xmlns:svgjs="http://svgjs.dev/svgjs" viewBox="0 0 800 800"><defs><filter id="ssspot-filter" x="-20%" y="-20%" width="140%" height="140%" filterUnits="objectBoundingBox" primitiveUnits="userSpaceOnUse" color-interpolation-filters="sRGB">
	<feTurbulence type="turbulence" baseFrequency="0.022 0.218" numOctaves="2" seed="48" stitchTiles="stitch" x="0%" y="0%" width="100%" height="100%" result="turbulence"></feTurbulence>
	<feGaussianBlur stdDeviation="0 3" x="0%" y="0%" width="100%" height="100%" in="turbulence" edgeMode="duplicate" result="blur"></feGaussianBlur>
	<feDisplacementMap in="SourceGraphic" in2="blur" scale="32" xChannelSelector="R" yChannelSelector="B" x="0%" y="0%" width="100%" height="100%" result="displacementMap"></feDisplacementMap>
</filter></defs><rect width="100%" height="100%" fill="hsl(0, 0%, 95%)"></rect><g fill="hsl(205, 69%, 50%)" filter="url(#ssspot-filter)"><circle r="6.776789022514157" cx="722.5532512483559" cy="175.96457620439983" opacity="0.7741473044063192"></circle><circle r="4.915100829525375" cx="592.8214868449962" cy="360.56513922254135" opacity="0.3969516416053076"></circle><circle r="4.251523074834943" cx="388.29066057124766" cy="566.4596444978391" opacity="0.9760981450765273"></circle><circle r="4.663186633331627" cx="567.6589532629454" cy="48.219169328579596" opacity="0.6102324914435556"></circle><circle r="3.2740862580600196" cx="8.629861725265222" cy="552.0189601901066" opacity="0.8221703927998784"></circle><circle r="7.069885105470485" cx="520.513046706827" cy="711.8715999588239" opacity="0.5035501923100746"></circle><circle r="4.793455976665031" cx="96.45910311402133" cy="36.307145981687185" opacity="0.6438470338531666"></circle><circle r="5.5554919148182655" cx="310.91444698474135" cy="275.8188461947552" opacity="0.20082908988614404"></circle><circle r="2.853331174414293" cx="129.3977836015868" cy="16.107123904732035" opacity="0.6527687732569885"></circle><circle r="4.33261178432259" cx="14.410292778775423" cy="274.21072591832063" opacity="0.3288870201366708"></circle><circle r="9.190841134642753" cx="216.1959918026358" cy="515.8168480038169" opacity="0.5197114315538506"></circle><circle r="3.6825064151757654" cx="772.8154598068277" cy="639.8950105385214" opacity="0.7709077982597431"></circle><circle r="5.2719416207201695" cx="24.102826807398454" cy="202.7525906719862" opacity="0.9709986985478234"></circle><circle r="7.157138112877886" cx="717.1794249146576" cy="305.7382681632884" opacity="0.15636473585834065"></circle><circle r="6.804040632398777" cx="549.6493286345379" cy="15.180704415318134" opacity="0.3902801436301899"></circle><circle r="8.610120618473214" cx="359.1041416059315" cy="55.82412589237562" opacity="0.9415922792879169"></circle><circle r="8.01774505405284" cx="199.33085883360323" cy="273.5818967373375" opacity="0.8639951856500561"></circle><circle r="5.683151944673353" cx="614.8133193915528" cy="269.38179745797595" opacity="0.8161594628504248"></circle><circle r="5.452160190943805" cx="287.74177683447283" cy="309.5347014880547" opacity="0.6127465857126411"></circle><circle r="4.697748257021718" cx="721.1083432147697" cy="278.5249246762078" opacity="0.18034256774000745"></circle><circle r="3.906282886313431" cx="456.8508880838337" cy="96.54451053288811" opacity="0.37645520342207683"></circle><circle r="3.9556670449351583" cx="73.85332669424993" cy="630.9726153374772" opacity="0.8440218002345439"></circle><circle r="6.000887568934262" cx="660.1025554696515" cy="480.21943957623046" opacity="0.5943906713948679"></circle><circle r="5.352215405168412" cx="219.51295096744823" cy="737.5466637523243" opacity="0.1510308540306945"></circle><circle r="3.814962361985958" cx="681.6005337931778" cy="384.9595256522371" opacity="0.723218051697639"></circle><circle r="4.75893033440783" cx="119.53904066828314" cy="133.30608580131167" opacity="0.5291416701906275"></circle><circle r="8.973140576175286" cx="529.4982789363686" cy="745.3481687710938" opacity="0.8726066875387833"></circle><circle r="3.369991758555458" cx="623.0452144773285" cy="338.9318223888221" opacity="0.5211998991570733"></circle><circle r="7.128786523237052" cx="225.29911442537625" cy="411.8764765774588" opacity="0.7916894028515171"></circle><circle r="6.37689059705588" cx="757.4893528444742" cy="525.0590167521979" opacity="0.8943256527010757"></circle><circle r="5.735490188697343" cx="377.7577999242326" cy="148.88605189053237" opacity="0.6727412496123182"></circle><circle r="4.873057582150917" cx="435.93016208440673" cy="439.7210978168402" opacity="0.7660565039351304"></circle><circle r="3.2374454741344145" cx="294.0997782516555" cy="546.3040500051097" opacity="0.38955863346600117"></circle><circle r="5.578507201222462" cx="466.6677001092271" cy="547.4111277656235" opacity="0.912140151567383"></circle><circle r="5.21703100062099" cx="70.02215129701668" cy="601.3740908690033" opacity="0.8311809738198754"></circle><circle r="6.595334451124494" cx="145.28882915792627" cy="650.513563876987" opacity="0.9302969116359359"></circle><circle r="5.197468925551654" cx="75.26989062084289" cy="760.5429905766046" opacity="0.1405912348140202"></circle><circle r="3.560125648870939" cx="336.89637872734846" cy="787.6455052180773" opacity="0.37666493444617166"></circle><circle r="4.944819239609084" cx="58.027601319313554" cy="350.5088194016577" opacity="0.34379758409048633"></circle><circle r="8.316416007433965" cx="307.0767676574731" cy="648.7560978711439" opacity="0.7095256268227007"></circle><circle r="3.977041156294151" cx="87.71330536213088" cy="118.23750148208462" opacity="0.3325982775424898"></circle><circle r="5.925635552117198" cx="786.8465493770515" cy="215.20692669538627" opacity="0.6508229649179039"></circle><circle r="6.420150577144028" cx="12.82863562289111" cy="474.65175099068153" opacity="0.1214446444902913"></circle><circle r="6.430970131964077" cx="31.537329682379557" cy="438.1693934766239" opacity="0.6995381303676764"></circle><circle r="4.071748418377436" cx="687.8750395484316" cy="622.879123911128" opacity="0.1393872896707813"></circle><circle r="3.823357184224237" cx="49.25477152082504" cy="582.4545436215991" opacity="0.8255254847794161"></circle><circle r="2.877536815559418" cx="361.97240755429294" cy="784.173942147254" opacity="0.3603411708128216"></circle><circle r="4.719941640258998" cx="14.14926129947101" cy="600.6234643112635" opacity="0.20790416934493755"></circle><circle r="5.850064984436633" cx="618.9757923954132" cy="243.95731251900614" opacity="0.43671136941862365"></circle><circle r="9.611919919328404" cx="616.3763943453697" cy="634.592147654272" opacity="0.151207378561748"></circle><circle r="7.9779511905665546" cx="230.54300375894346" cy="65.25794009400158" opacity="0.503168206196362"></circle><circle r="5.44550047454382" cx="137.0099511529829" cy="522.645018099" opacity="0.9606386170623348"></circle><circle r="5.424674047777027" cx="468.18346617532245" cy="505.8581616410957" opacity="0.4065867655161153"></circle><circle r="5.1898257558526755" cx="287.1805698581725" cy="191.49653731891178" opacity="0.8131827013690427"></circle><circle r="6.098552104354628" cx="349.43635239277904" cy="123.14572995581709" opacity="0.789704367416932"></circle><circle r="6.5949307183818835" cx="534.4455318917956" cy="614.89510346636" opacity="0.24686171519425446"></circle><circle r="8.22161074080066" cx="781.5788233860512" cy="256.6697887723087" opacity="0.554918050035646"></circle><circle r="6.286008169604564" cx="285.49555050601566" cy="582.087157962195" opacity="0.5774344476784612"></circle><circle r="3.729273290853351" cx="114.04054982526151" cy="67.03072449353128" opacity="0.497240999098981"></circle><circle r="6.650219174129237" cx="431.74860564707905" cy="600.5918234926465" opacity="0.6305318541700923"></circle><circle r="3.7747695600210425" cx="315.74306533576646" cy="544.00247094671" opacity="0.8781424167620429"></circle><circle r="3.872428961474392" cx="586.1812249037238" cy="393.38922545263574" opacity="0.7544676693342882"></circle><circle r="5.0962719527063625" cx="153.0628040140857" cy="582.1110608588236" opacity="0.7771760314670433"></circle><circle r="3.7688021750761216" cx="517.3537674151519" cy="404.5050662757547" opacity="0.924431748414021"></circle><circle r="3.727084338163714" cx="489.76740669501544" cy="393.12430181592174" opacity="0.9472887875621971"></circle><circle r="5.3542947536434795" cx="102.1964008117033" cy="10.798240336130123" opacity="0.7065536969856591"></circle><circle r="7.099434596056097" cx="501.54394848548145" cy="344.28443970575205" opacity="0.42618960301952813"></circle><circle r="6.734910542382084" cx="553.6009649638924" cy="500.6208403770732" opacity="0.8207769785988484"></circle><circle r="3.987387088603408" cx="33.61411563787862" cy="544.0249470803758" opacity="0.9368701103177062"></circle><circle r="4.045226404623034" cx="750.8958656674873" cy="269.5847888997859" opacity="0.42834650091920434"></circle><circle r="6.418120000580399" cx="725.6851113753005" cy="345.2847077000674" opacity="0.6253381307614297"></circle><circle r="3.869091559936124" cx="357.7203809200936" cy="491.7199269040055" opacity="0.40918514367202674"></circle><circle r="5.310648219548052" cx="635.3637755318381" cy="697.6931363202912" opacity="0.6575235634737315"></circle><circle r="3.512152388950337" cx="596.290722146343" cy="31.500308122093767" opacity="0.6257661271809508"></circle><circle r="7.228835560107759" cx="525.6982010949664" cy="490.0630068634055" opacity="0.3044599764721122"></circle><circle r="3.5282918755266635" cx="324.4330886539084" cy="129.34019891057542" opacity="0.624593398303662"></circle><circle r="3.8417820566184453" cx="127.24950985341107" cy="432.79325903187106" opacity="0.6982429501304535"></circle><circle r="4.968025608509119" cx="400.4581820516408" cy="399.0746427702645" opacity="0.4493427409678675"></circle><circle r="6.840171581127981" cx="306.3787396493779" cy="443.5874493751425" opacity="0.7812481945571388"></circle><circle r="8.128263817053908" cx="330.75094763547287" cy="195.48284837677664" opacity="0.40028517595374036"></circle><circle r="5.424372825769514" cx="679.9700038437329" cy="246.71570638873925" opacity="0.12496448103333685"></circle><circle r="5.9559023154787" cx="291.03607028887507" cy="245.9287015683892" opacity="0.554403557693066"></circle><circle r="5.073959533267601" cx="355.70351027033377" cy="258.8839674125819" opacity="0.30438813299672557"></circle><circle r="4.343116454903584" cx="335.42483770777636" cy="428.50404936690853" opacity="0.13612228022253545"></circle><circle r="7.80273478656247" cx="95.35779722275146" cy="510.2557824178892" opacity="0.5068609723074976"></circle><circle r="3.680261331555444" cx="710.2098116621313" cy="150.22707537461434" opacity="0.9215576295606523"></circle><circle r="5.71582072859327" cx="69.58232713665548" cy="453.5774535959206" opacity="0.2559469343669232"></circle><circle r="3.277324135444711" cx="631.3880003648375" cy="382.07547674231927" opacity="0.9142420086333004"></circle><circle r="4.54387322651211" cx="539.3976144512562" cy="378.38288490323805" opacity="0.48238982056212054"></circle><circle r="6.447928442534137" cx="360.60121416450346" cy="464.95513967799707" opacity="0.2729834505712911"></circle><circle r="4.003094223945031" cx="434.7766037362914" cy="310.8873668525096" opacity="0.4906583632827235"></circle><circle r="5.809049498471491" cx="17.13598591492898" cy="338.3073569645318" opacity="0.7249359454756104"></circle><circle r="6.519083643742972" cx="623.5043913762916" cy="477.34500342984103" opacity="0.8469129049926217"></circle><circle r="5.2731712683730345" cx="257.10184803633086" cy="103.75154608389118" opacity="0.9058221800156843"></circle><circle r="4.936322484259852" cx="10.889755266917549" cy="428.6782457798014" opacity="0.1438947849281233"></circle><circle r="3.9913406698968426" cx="763.9627082847879" cy="613.8623923140995" opacity="0.2553092287282826"></circle><circle r="6.059439093532444" cx="422.3527070076203" cy="279.0788962187792" opacity="0.19028972580125864"></circle><circle r="5.058156195335716" cx="424.7228988782682" cy="394.3388685322968" opacity="0.8350142018956584"></circle><circle r="5.879759250377427" cx="53.79073035263049" cy="265.88193776080055" opacity="0.1357312209646841"></circle><circle r="4.476435601272625" cx="63.618749520721416" cy="524.8696659073888" opacity="0.10240306687520843"></circle><circle r="5.246982206691431" cx="206.95792790520602" cy="184.75768755732443" opacity="0.30842132601715105"></circle><circle r="7.628316858224977" cx="687.0939571297457" cy="186.0675601120199" opacity="0.9847248881324866"></circle><circle r="4.395649306204581" cx="175.5788483210752" cy="70.75246622191062" opacity="0.8108658580915036"></circle><circle r="4.949822519766347" cx="208.00576717172328" cy="216.0442765621818" opacity="0.2837718138977037"></circle><circle r="2.9636150165296447" cx="360.7114022788521" cy="425.2582847448719" opacity="0.779742750378351"></circle><circle r="6.905124955277714" cx="559.0552507219675" cy="348.6228423298396" opacity="0.8052738656924181"></circle><circle r="5.518653610010658" cx="13.556827830119586" cy="57.87568334602077" opacity="0.170142964336355"></circle><circle r="2.594914069236344" cx="377.8219009355691" cy="791.179097455275" opacity="0.79105846563522"></circle><circle r="3.119587751918513" cx="255.302302665772" cy="299.3875516057406" opacity="0.8146479237868218"></circle><circle r="9.352762745252456" cx="191.47327199285533" cy="391.78395283587975" opacity="0.9596061021186271"></circle><circle r="6.82971360727808" cx="459.8217460894917" cy="466.6121748754058" opacity="0.4065225372575"></circle><circle r="4.5398837334079145" cx="33.42940699506224" cy="142.76739712820162" opacity="0.5004972543127582"></circle><circle r="3.8932893891934715" cx="225.8024919389123" cy="241.006915662152" opacity="0.6649922101893265"></circle><circle r="4.018323890767025" cx="584.4962270507159" cy="260.4671404551015" opacity="0.7700628803114633"></circle><circle r="5.846912846184928" cx="335.99202358161403" cy="459.3600321534152" opacity="0.3568430534569854"></circle><circle r="3.939962901473707" cx="334.46170733135614" cy="554.8432917683816" opacity="0.3105204106716435"></circle><circle r="3.9453313667211605" cx="552.6281487376017" cy="441.82121342055154" opacity="0.7351132663750976"></circle><circle r="2.853790597629489" cx="536.1085328471343" cy="420.3564394041193" opacity="0.8361494569243049"></circle><circle r="4.44944607137659" cx="12.786886861039532" cy="27.20152278461637" opacity="0.568229984665793"></circle><circle r="4.347083887325909" cx="358.1367506704922" cy="580.4786666483379" opacity="0.6870887963990732"></circle><circle r="6.9898621898203634" cx="52.24826543166686" cy="383.80201529830623" opacity="0.25551698825283087"></circle><circle r="6.644630937549422" cx="636.8620342214335" cy="29.350093073841048" opacity="0.7299390392015406"></circle><circle r="4.9488905562326835" cx="567.936302244264" cy="164.19127960383892" opacity="0.8366434533603512"></circle><circle r="3.1717566111319324" cx="311.57716504552883" cy="310.8918837669661" opacity="0.9130400714252571"></circle><circle r="8.647035864369387" cx="224.2296195463482" cy="478.2321762589015" opacity="0.13893295863776978"></circle><circle r="6.044345125535794" cx="524.0248180768222" cy="156.2181687962252" opacity="0.45064348576135016"></circle><circle r="5.512261037308992" cx="406.55572712778707" cy="322.01342559757893" opacity="0.9890726501107855"></circle><circle r="7.064188009984569" cx="721.2114795238306" cy="208.18415195579357" opacity="0.10236051645344248"></circle><circle r="5.0289453533760025" cx="168.8214252272054" cy="195.2776421492434" opacity="0.8325519290583777"></circle><circle r="5.410048551880088" cx="167.46806317656777" cy="33.13521309742648" opacity="0.5130799939164348"></circle><circle r="7.540426129927271" cx="524.5663142313838" cy="231.732360137406" opacity="0.28900053910770584"></circle><circle r="9.30105195077408" cx="568.3212939613545" cy="128.41138779131094" opacity="0.820973723932655"></circle><circle r="6.932117190980482" cx="545.8649244460248" cy="199.76479624582208" opacity="0.8342161324583836"></circle><circle r="3.4474373155372495" cx="437.78439602103333" cy="484.69771233507703" opacity="0.7599918069354509"></circle><circle r="6.009097129632131" cx="757.94439188112" cy="661.1654382970808" opacity="0.1359702679082627"></circle><circle r="6.051452490098102" cx="66.68224622310264" cy="660.6003307665002" opacity="0.3812665212516392"></circle><circle r="3.403999723746829" cx="788.8618772866193" cy="659.4968100518342" opacity="0.3236051236377033"></circle><circle r="3.720305498668001" cx="43.296750096981405" cy="697.5326284076165" opacity="0.7484209002755186"></circle><circle r="6.6339247920751525" cx="692.0406184255111" cy="595.4798804328439" opacity="0.7942495920276215"></circle><circle r="3.0115726620840255" cx="560.7890598851508" cy="423.65385949042036" opacity="0.7808642852055436"></circle><circle r="4.922727654120678" cx="513.0163267570282" cy="522.3345945114173" opacity="0.16209882993773406"></circle><circle r="5.659950061721925" cx="386.0720270025672" cy="605.4440574829987" opacity="0.9285452961358723"></circle><circle r="4.735688669196401" cx="421.9728875694616" cy="574.6367197559741" opacity="0.27789811638148576"></circle><circle r="5.9801642080654815" cx="529.3890443619888" cy="276.53407221981985" opacity="0.2718075416226453"></circle><circle r="4.471094622043841" cx="74.73679731441568" cy="189.58884905230244" opacity="0.3959647028895882"></circle><circle r="5.169468756270138" cx="299.2707594592959" cy="87.90964608096766" opacity="0.35746644928042626"></circle><circle r="5.611313355298522" cx="278.38423696291517" cy="286.4991953821959" opacity="0.9417398215279326"></circle><circle r="5.776155116287792" cx="579.9258525899303" cy="625.4988799769538" opacity="0.14160540425731524"></circle><circle r="4.45902577430872" cx="699.1026586055797" cy="76.20754940231447" opacity="0.15435764114654915"></circle><circle r="6.785708531137367" cx="321.3454507266475" cy="492.6328974245167" opacity="0.6582585564743388"></circle><circle r="7.241560852830299" cx="62.18200140010046" cy="134.6019561281324" opacity="0.10883321182219162"></circle><circle r="6.233150190113037" cx="631.414471922866" cy="423.6530993203117" opacity="0.5797918648359629"></circle><circle r="5.929370670591945" cx="274.2260509800358" cy="13.421089218304239" opacity="0.11450045205347993"></circle><circle r="3.080749715247851" cx="431.17329022029696" cy="524.4315289213965" opacity="0.7186581099847547"></circle><circle r="4.622911658493365" cx="445.1661229029161" cy="210.4873851778716" opacity="0.1032505245341658"></circle><circle r="7.086983971490614" cx="408.84341197921555" cy="36.965865468001226" opacity="0.2739012624046567"></circle><circle r="6.255668831932061" cx="208.77398066030167" cy="90.97313401324723" opacity="0.3781600200978694"></circle><circle r="7.140341584603271" cx="412.79198688926795" cy="750.0124622176222" opacity="0.6219005708493134"></circle><circle r="5.756332588580589" cx="692.6975487637754" cy="663.4795641786545" opacity="0.7265011630811856"></circle><circle r="4.466969316746079" cx="306.0908118575581" cy="787.0369302705463" opacity="0.5918554428950712"></circle><circle r="7.131969308611305" cx="17.4186022232422" cy="714.0437436665383" opacity="0.5381301984648555"></circle><circle r="4.364339310939004" cx="515.2458616045863" cy="33.029386442939845" opacity="0.6932290930139925"></circle><circle r="7.087860326259317" cx="514.8214953879326" cy="198.15109625580823" opacity="0.1163006375588512"></circle><circle r="3.5261232293850027" cx="289.3340299635046" cy="117.56624084683668" opacity="0.6158457772883994"></circle><circle r="6.784252812969724" cx="173.42190283999878" cy="306.923449408925" opacity="0.8672665435461193"></circle><circle r="5.535064671385708" cx="61.131213493874334" cy="162.5896049766957" opacity="0.4649835365679825"></circle><circle r="6.854426392224676" cx="752.6976556081178" cy="157.31981255031602" opacity="0.6905837930140718"></circle><circle r="4.436722422624392" cx="289.60297907939315" cy="501.5906374708876" opacity="0.37113362267993333"></circle><circle r="3.835948890431744" cx="101.83238051258459" cy="96.16736361547557" opacity="0.6483061331250759"></circle><circle r="6.822498919585049" cx="195.02851977497602" cy="21.283550953613013" opacity="0.7077857376625761"></circle><circle r="3.558386993450882" cx="615.9369335734303" cy="220.43567471485886" opacity="0.9676715049883361"></circle><circle r="5.7837166867265" cx="317.31692878354903" cy="378.78486190590746" opacity="0.5805297208896895"></circle><circle r="2.888569069963001" cx="256.25764297301424" cy="339.68801507372893" opacity="0.8162938814889189"></circle><circle r="5.706430193389858" cx="328.0819959050202" cy="354.30147166133287" opacity="0.5632199059175871"></circle><circle r="7.48218670014543" cx="341.6015580435022" cy="664.5278335879347" opacity="0.9825538187632287"></circle><circle r="3.8721206027838706" cx="447.5533661095241" cy="536.5415540380728" opacity="0.5093967409505241"></circle><circle r="4.811723629300429" cx="787.6981316347984" cy="172.7676029458022" opacity="0.40792540578084613"></circle><circle r="6.217770795921277" cx="656.8955846166923" cy="354.2841579047888" opacity="0.45221496512485926"></circle><circle r="5.49962793318608" cx="129.48303531143353" cy="245.1612989345867" opacity="0.7701017521406763"></circle><circle r="7.392108532235984" cx="781.2375823667148" cy="70.11667237721528" opacity="0.8796630821562085"></circle><circle r="3.882157446532138" cx="356.0861017794885" cy="704.8001382555591" opacity="0.9928360768058572"></circle><circle r="3.3939246148859508" cx="368.98974393822846" cy="509.6210612634759" opacity="0.3819689220132714"></circle><circle r="5.734231277879701" cx="272.5063155362027" cy="699.1360998117281" opacity="0.42526712373549314"></circle><circle r="4.626537345084524" cx="582.3530577393495" cy="741.6554134918059" opacity="0.6909165399603632"></circle><circle r="6.435179834401605" cx="511.5102908218647" cy="376.9200796574399" opacity="0.4129193235841806"></circle><circle r="5.932190576904104" cx="740.143965656443" cy="643.3644199385127" opacity="0.6319537501745833"></circle><circle r="8.209186925018907" cx="587.2118598335577" cy="88.96882842943585" opacity="0.43464883944578914"></circle><circle r="4.960587083225434" cx="433.56473955703626" cy="14.771128449662115" opacity="0.8785272226392985"></circle><circle r="3.876941659712914" cx="188.89646968895067" cy="765.9020787140784" opacity="0.33482778057704743"></circle><circle r="2.7926919017119314" cx="548.3137799915568" cy="397.43846819218925" opacity="0.9697820797717137"></circle><circle r="5.0738549145792975" cx="275.24311144872956" cy="464.51366774724715" opacity="0.7120805883145251"></circle><circle r="4.143603449182692" cx="170.98155417348372" cy="126.9445411036324" opacity="0.7313499406102019"></circle><circle r="4.133927559042869" cx="309.34293576082445" cy="705.1849977847025" opacity="0.2659796184204065"></circle><circle r="5.228631729501378" cx="326.5901328323799" cy="689.3990444131827" opacity="0.4859677077666399"></circle><circle r="3.2787155804164883" cx="567.8124795834045" cy="374.13598472658316" opacity="0.12185835719345839"></circle><circle r="5.996337034978594" cx="179.4089185513473" cy="711.4301373886169" opacity="0.9670031378198524"></circle><circle r="4.018426666239257" cx="308.47019005751673" cy="762.3316644380116" opacity="0.5415365606151028"></circle><circle r="10.583085752401114" cx="417.2735147213827" cy="179.34629071035832" opacity="0.8194644262597025"></circle><circle r="2.800219948579923" cx="286.1276702909772" cy="385.4965835008693" opacity="0.3672894064944827"></circle><circle r="7.116821348716121" cx="321.04723494803176" cy="56.38160739858632" opacity="0.5234871688270462"></circle><circle r="6.308114504958246" cx="734.6442440360628" cy="462.39067379379355" opacity="0.7564174821445863"></circle><circle r="5.538775536211575" cx="24.256085971706455" cy="237.0316198022778" opacity="0.3230862573023288"></circle><circle r="7.7672674136993365" cx="342.4778120160205" cy="395.2167970499222" opacity="0.7136928645644189"></circle><circle r="6.90841018357664" cx="624.4790076876037" cy="117.89223914101687" opacity="0.5637606207524027"></circle><circle r="7.464032560110387" cx="129.24392170283895" cy="300.7382943461222" opacity="0.7121980631159"></circle><circle r="6.11248719506259" cx="746.0626753590653" cy="326.3879746780041" opacity="0.30497501491913215"></circle><circle r="3.6949105929313184" cx="106.71482240297968" cy="193.39430521866055" opacity="0.1262887062795477"></circle><circle r="4.332204504534075" cx="477.1499271253886" cy="667.710985838825" opacity="0.46465043993741406"></circle><circle r="3.134275218709488" cx="367.88735815824566" cy="532.3440458290117" opacity="0.281493133966454"></circle><circle r="4.559389802799899" cx="618.2334303049229" cy="363.22250326335916" opacity="0.6841853011452489"></circle><circle r="5.397002750778246" cx="397.22894394420183" cy="785.4290276300248" opacity="0.3685231814752171"></circle><circle r="7.867474222704624" cx="29.076361117653114" cy="743.7767190911753" opacity="0.5403474298422635"></circle><circle r="2.6388943673508316" cx="282.93914849601776" cy="361.50461716530367" opacity="0.10668255979472278"></circle><circle r="6.377817091265999" cx="487.5738215580679" cy="713.3011047601026" opacity="0.3828651942209821"></circle><circle r="4.710510424280065" cx="237.35307850519635" cy="446.73909946712155" opacity="0.9653004748051658"></circle><circle r="5.807551679738776" cx="136.95964227085798" cy="211.07599821777595" opacity="0.4207776780728191"></circle><circle r="4.775471207680005" cx="65.8411268699288" cy="318.59032232231783" opacity="0.9884927280012237"></circle><circle r="7.497308879994389" cx="780.845192429956" cy="574.8294378792406" opacity="0.8909249243405852"></circle><circle r="6.832041220342241" cx="717.2249300009861" cy="515.5434485795203" opacity="0.5650529553441254"></circle><circle r="7.966048287129736" cx="509.34893711075716" cy="781.12870385112" opacity="0.7326285725310372"></circle><circle r="6.107815007444682" cx="649.8029329727682" cy="224.95548684806278" opacity="0.3853571420062011"></circle><circle r="7.419697006024023" cx="102.59287626669963" cy="608.7200111979242" opacity="0.6481319244805887"></circle><circle r="7.064640006420133" cx="278.3195297293888" cy="667.0238258248253" opacity="0.3754531190861732"></circle><circle r="8.057791397664833" cx="670.6940145710519" cy="43.42496441634406" opacity="0.8297241276076687"></circle><circle r="5.8793083455868835" cx="726.5638989018436" cy="243.56833132970766" opacity="0.12839226022779562"></circle><circle r="8.347399036433615" cx="173.97990269424307" cy="465.26986493908527" opacity="0.14169026963346104"></circle><circle r="4.109624721786341" cx="327.71962913728197" cy="93.71373051284307" opacity="0.4091376597559533"></circle><circle r="3.6786746894424707" cx="380.105791276288" cy="284.7494128860573" opacity="0.44129888119280514"></circle><circle r="6.637284928848713" cx="504.1440820826613" cy="262.3204030519617" opacity="0.7758443458503846"></circle><circle r="3.747117805242558" cx="214.005664680014" cy="791.1709402947765" opacity="0.5132827513184198"></circle><circle r="5.923343363143161" cx="145.0921559567129" cy="485.64347378180696" opacity="0.12904760382511937"></circle><circle r="5.242211662690242" cx="118.6781380448563" cy="685.2973012049583" opacity="0.48504915815095995"></circle><circle r="5.490229197415635" cx="397.5584563317273" cy="256.6026828033323" opacity="0.3264830642932748"></circle><circle r="4.1647587985596175" cx="478.2832297042484" cy="36.68421909152514" opacity="0.8452416653125921"></circle><circle r="3.3909191664744713" cx="276.54547902251153" cy="751.981783660766" opacity="0.37321868081192455"></circle><circle r="4.746281902441635" cx="152.6667265082397" cy="54.65452874834652" opacity="0.3411463971286619"></circle><circle r="5.7517631019664535" cx="445.9213449646651" cy="54.21850593151569" opacity="0.28106091056781846"></circle><circle r="5.100701119108557" cx="216.5460804200407" cy="767.5475321107984" opacity="0.38892265538136117"></circle><circle r="4.096396393584993" cx="756.4755274666757" cy="425.3976584692433" opacity="0.2652639288750618"></circle><circle r="4.8930794317760675" cx="429.15962927438255" cy="670.0361625567576" opacity="0.29183567965838986"></circle><circle r="6.156574749406048" cx="16.91123501917399" cy="110.25390167180349" opacity="0.22892617180262448"></circle><circle r="6.555639508632233" cx="254.04796131717043" cy="509.9260107276943" opacity="0.5802592530233227"></circle><circle r="6.324126987955683" cx="284.75100412564905" cy="55.22979506312708" opacity="0.6350815402406316"></circle><circle r="4.136609804168564" cx="492.0025980182317" cy="450.38834300625547" opacity="0.1873830422499809"></circle><circle r="5.2753233460042015" cx="41.441193099674365" cy="667.7617109464288" opacity="0.8419941982556665"></circle><circle r="5.329153745499819" cx="785.3861283733534" cy="13.001663400751017" opacity="0.6806649698483538"></circle><circle r="3.257686204485819" cx="438.1646370096896" cy="647.5105733188185" opacity="0.24227463016370698"></circle><circle r="5.5431518484465965" cx="131.68194096060407" cy="181.79005303692978" opacity="0.15007367840782676"></circle><circle r="6.545697284915303" cx="685.3468758446218" cy="13.476728319199555" opacity="0.3848550409856385"></circle><circle r="5.92789899848628" cx="261.8284120297126" cy="76.41583150720385" opacity="0.4144855827272512"></circle><circle r="4.179742173800069" cx="294.90696440499045" cy="612.0289787120527" opacity="0.7958995960172282"></circle><circle r="9.464314771730931" cx="250.5821895622062" cy="207.48812760872775" opacity="0.10842189133674762"></circle><circle r="3.096731804281587" cx="672.2363979195709" cy="583.9736255636486" opacity="0.9644212996342113"></circle><circle r="6.266678250978078" cx="425.1816904010631" cy="362.5272523148198" opacity="0.3704132384624059"></circle><circle r="7.39895565400366" cx="617.8990675698162" cy="152.99367147286415" opacity="0.7390519916389731"></circle><circle r="4.2574399966247425" cx="493.1178654198602" cy="481.5029620572685" opacity="0.6101929285339667"></circle><circle r="7.766295304742682" cx="178.24883719549624" cy="510.1641938255999" opacity="0.6871741816494229"></circle><circle r="6.966543615978042" cx="254.5334227558263" cy="36.92651292733291" opacity="0.5689279328565617"></circle><circle r="4.990384829319048" cx="168.16857902802516" cy="555.6206305401261" opacity="0.7630696102238151"></circle><circle r="6.542019942911737" cx="351.3480635888277" cy="328.2085509474981" opacity="0.47899867034582133"></circle><circle r="6.931648748521568" cx="718.2738101417873" cy="689.100825804966" opacity="0.9027156661308323"></circle><circle r="6.323013674018744" cx="182.31061545060032" cy="677.6804616407483" opacity="0.505632489440562"></circle><circle r="3.2475535415531556" cx="249.7077097076044" cy="356.5366424482544" opacity="0.39370656398657033"></circle><circle r="5.962522565597653" cx="198.40144849152875" cy="551.7183608028993" opacity="0.7129912339151228"></circle><circle r="6.105503591897395" cx="762.9583969437383" cy="302.9669298138805" opacity="0.8909657023363631"></circle><circle r="6.946822948567938" cx="49.921738383279056" cy="105.3743656926119" opacity="0.16361540699980712"></circle><circle r="6.124926955785421" cx="734.8623592012264" cy="496.33339969788665" opacity="0.898963392312331"></circle><circle r="7.6708151545824395" cx="137.3420031011911" cy="88.72159993542375" opacity="0.406561931224491"></circle><circle r="3.411767752326703" cx="171.50229382063813" cy="98.99887750661544" opacity="0.20410043933110242"></circle><circle r="4.225835798529907" cx="514.2987839169772" cy="432.38631462425604" opacity="0.8574688550006864"></circle><circle r="5.787663476395837" cx="66.05019285946724" cy="229.95951703782166" opacity="0.8350279303334139"></circle><circle r="6.550430595101771" cx="650.0430200215108" cy="81.14112257018651" opacity="0.8932312004084154"></circle><circle r="6.270912644593096" cx="198.81072889459654" cy="149.88023149867448" opacity="0.4670049179593898"></circle><circle r="7.681902289772324" cx="702.0690501059544" cy="729.5236635142761" opacity="0.9258870045333922"></circle><circle r="6.151561295644706" cx="605.2671232044161" cy="190.59395756653186" opacity="0.22203280115947255"></circle><circle r="3.8803662361201603" cx="34.84411239502272" cy="15.012568397541607" opacity="0.7164043223966761"></circle><circle r="5.635640045379752" cx="169.58311099504053" cy="161.78971024571453" opacity="0.903239702687225"></circle><circle r="6.3143910655696125" cx="202.06946352336362" cy="322.96772070417575" opacity="0.9450179053199578"></circle><circle r="3.1753505831137376" cx="414.35468120722345" cy="478.2178944827375" opacity="0.2256024899718448"></circle><circle r="6.223783308121478" cx="640.1626419441967" cy="317.94384135852806" opacity="0.1257564100977037"></circle><circle r="7.902791926668675" cx="550.28683393796" cy="91.60910046902475" opacity="0.9315015912286452"></circle><circle r="5.430969900435188" cx="376.5271160078176" cy="383.169805884246" opacity="0.9678185001219153"></circle><circle r="5.990319025967182" cx="578.5860151465224" cy="195.11959987360527" opacity="0.8691916882309682"></circle><circle r="4.429761207002729" cx="755.2283990857626" cy="224.1846060922363" opacity="0.824989926696365"></circle><circle r="6.884307790862092" cx="485.849667023822" cy="133.56975942109986" opacity="0.19132464843231634"></circle><circle r="4.994762583997035" cx="126.17958082946483" cy="44.007074085137305" opacity="0.9260023545146605"></circle><circle r="7.139934422303332" cx="669.6682012478266" cy="416.011855037664" opacity="0.5050442429806448"></circle><circle r="3.6260939833122605" cx="290.90052434926884" cy="727.3656364102719" opacity="0.6274923198211942"></circle><circle r="3.987541039181152" cx="100.46677987807354" cy="447.130416692647" opacity="0.7406366151440028"></circle><circle r="4.545913095042206" cx="135.37033276570014" cy="361.99703280517735" opacity="0.9997617624736257"></circle><circle r="8.52390522728848" cx="218.87375409937792" cy="598.3818204097099" opacity="0.29021537376330386"></circle><circle r="6.4693100516025925" cx="736.1616073746479" cy="753.6313323712698" opacity="0.9942962855575316"></circle><circle r="6.448746380066371" cx="515.2643479453252" cy="104.69827137817678" opacity="0.7240746244186822"></circle><circle r="6.176352177357858" cx="12.42613386089832" cy="678.1275997860445" opacity="0.5380311888132101"></circle><circle r="6.205305464101504" cx="530.8214541098722" cy="349.40261954765754" opacity="0.20455996097121623"></circle><circle r="6.8046027648711505" cx="29.902808799242543" cy="303.820481688149" opacity="0.19494803381008394"></circle><circle r="5.134501535816001" cx="293.09278949182124" cy="217.72485150678176" opacity="0.5397997731422328"></circle><circle r="4.510502821243846" cx="691.2272324632903" cy="329.965266280197" opacity="0.5127398797016678"></circle><circle r="5.821580057427655" cx="740.3697475473742" cy="112.83441874588465" opacity="0.9789183742062777"></circle><circle r="5.997146063288993" cx="67.9392829292708" cy="18.226311428509245" opacity="0.26572320633682617"></circle><circle r="4.10330481554273" cx="234.55057704572025" cy="680.0033399714982" opacity="0.16138477870396728"></circle><circle r="6.075528991834977" cx="652.0014087431355" cy="253.62210618481552" opacity="0.6406940862838761"></circle><circle r="8.056219879843308" cx="330.9710707620958" cy="235.7056930795492" opacity="0.5332596069725649"></circle><circle r="4.653852224371722" cx="246.93201552092862" cy="253.2180294682164" opacity="0.6612675546573636"></circle><circle r="8.168344686609684" cx="781.4905350771029" cy="103.65221359845675" opacity="0.6279618339613336"></circle><circle r="8.292342657186236" cx="97.20080948207487" cy="334.7341473043433" opacity="0.3649736631627374"></circle><circle r="4.008940920348008" cx="767.8225343709845" cy="744.0959491520088" opacity="0.3551219403879414"></circle><circle r="4.9142436153768285" cx="198.88404969465202" cy="641.3564541764327" opacity="0.6740715585529956"></circle><circle r="7.440378509341123" cx="644.5416223829757" cy="524.0084457664501" opacity="0.5058078773936604"></circle><circle r="5.540341729826171" cx="17.459526481151173" cy="389.2648831109395" opacity="0.2241603057369526"></circle><circle r="4.929360285893815" cx="579.0899940528948" cy="581.2773348692227" opacity="0.7809453130802497"></circle><circle r="6.639262038852043" cx="737.9070556477677" cy="720.540905637659" opacity="0.2471963824273715"></circle><circle r="4.811189289679163" cx="139.0854708335801" cy="611.5723243130768" opacity="0.9166157064897918"></circle><circle r="3.9346874933519462" cx="710.2097176287842" cy="388.79591376610404" opacity="0.4334515954296274"></circle><circle r="7.775072244755334" cx="694.1234904455096" cy="478.54896703900016" opacity="0.46698614201299393"></circle><circle r="4.001530805475821" cx="680.9257629538198" cy="549.02045650676" opacity="0.5384318733813055"></circle><circle r="4.6714961517842974" cx="696.9097935012555" cy="122.31317800398706" opacity="0.9393977974906401"></circle><circle r="5.000926546798492" cx="300.32164604192747" cy="408.66464964260746" opacity="0.7713308916986952"></circle><circle r="5.627781019868811" cx="396.93325684252" cy="502.0163809466633" opacity="0.831571142484132"></circle><circle r="4.907658448464228" cx="443.4203666625713" cy="731.7708105501846" opacity="0.38746647529258893"></circle><circle r="5.5957558995445265" cx="62.32555359739518" cy="552.7819990176339" opacity="0.5465056653665851"></circle><circle r="6.080768033256907" cx="38.85998063043881" cy="57.842457179103484" opacity="0.6085419411750308"></circle><circle r="9.869029880120165" cx="778.1066140464684" cy="779.1973333138129" opacity="0.6800565415861635"></circle><circle r="4.415059570944189" cx="266.1434590627801" cy="265.5632853262745" opacity="0.6981497690778551"></circle><circle r="6.077094479627787" cx="783.7238906916022" cy="445.0609251155064" opacity="0.40446574172864835"></circle><circle r="4.995946632279229" cx="503.57118113529145" cy="621.9490503726013" opacity="0.4644446195765235"></circle><circle r="4.918828927788251" cx="582.4383989002499" cy="495.5489810734478" opacity="0.12431495496722482"></circle><circle r="6.620790406697601" cx="751.423735461509" cy="66.0243488581983" opacity="0.5511660640189066"></circle><circle r="6.508982880892039" cx="346.8490622983645" cy="762.3272002220406" opacity="0.9803147815053226"></circle><circle r="5.849331615343814" cx="733.7675761572189" cy="11.798428077589156" opacity="0.2911804543787924"></circle><circle r="5.403701055271006" cx="717.0561792927914" cy="636.3612192114363" opacity="0.4399050775652774"></circle><circle r="7.417886409668421" cx="397.86345344502337" cy="720.8692871340141" opacity="0.9813050647309697"></circle><circle r="6.029181501155041" cx="179.02598969254745" cy="609.8954795073157" opacity="0.13086313408366193"></circle><circle r="4.836132041424586" cx="425.3610838284331" cy="787.8210468890987" opacity="0.8474333020929011"></circle><circle r="3.2263213637668318" cx="149.92447056958684" cy="16.118943212825158" opacity="0.7156801135625848"></circle><circle r="4.884125737735041" cx="212.40252276792964" cy="352.1156648078847" opacity="0.7449588828710946"></circle><circle r="4.583038122390578" cx="658.7423155640859" cy="195.9056742079824" opacity="0.5154082199111472"></circle><circle r="3.514092670838183" cx="396.7398655136118" cy="475.7504345223511" opacity="0.12362795886940138"></circle><circle r="4.930673470075722" cx="529.9929453440145" cy="568.972398658135" opacity="0.4453312448060518"></circle><circle r="3.7026450672581133" cx="737.0166670053401" cy="381.57515184992855" opacity="0.3400600056641462"></circle><circle r="4.127675505509303" cx="265.76993656382376" cy="324.19359548601034" opacity="0.8423196303918986"></circle><circle r="5.972701981350874" cx="258.15486675567195" cy="626.202053720351" opacity="0.5476766394445522"></circle><circle r="4.418697827209067" cx="64.31599598754396" cy="49.49577132963881" opacity="0.587089690245804"></circle><circle r="5.607391077405174" cx="154.12431823724611" cy="418.35068643592143" opacity="0.5216269145878731"></circle><circle r="3.1887070880867046" cx="493.72995863736014" cy="186.2047509538503" opacity="0.9186961456262032"></circle><circle r="6.984338551727762" cx="336.0803124252751" cy="629.5498478769816" opacity="0.4944562594161751"></circle><circle r="4.421945329320799" cx="381.7538553460722" cy="692.4090630757607" opacity="0.11314296038350942"></circle><circle r="3.8649220992982163" cx="86.13853131435775" cy="156.31263772315958" opacity="0.6005285343096317"></circle><circle r="5.625152106036967" cx="62.46229973634228" cy="292.5002196145684" opacity="0.2103534874969582"></circle><circle r="5.091405890695584" cx="139.62982461383749" cy="123.63746978971942" opacity="0.686208784121461"></circle><circle r="5.50957928300818" cx="458.09729748474746" cy="390.564129518626" opacity="0.18023224216020597"></circle><circle r="4.551814088204344" cx="600.1277406806054" cy="56.294358429380004" opacity="0.580564070675316"></circle><circle r="7.5056963711407025" cx="361.85391458503676" cy="94.30397107801177" opacity="0.197742619163801"></circle><circle r="4.140012073962802" cx="391.22615775033364" cy="351.8166188389686" opacity="0.12078621411659421"></circle><circle r="6.8056822845074185" cx="718.3542831481756" cy="38.75631953771779" opacity="0.674632370223547"></circle><circle r="5.026145617465711" cx="438.08439470955994" cy="765.5781793225452" opacity="0.16761210618444886"></circle><circle r="5.511008651243515" cx="687.0431182291278" cy="786.7194907097537" opacity="0.32973649488855705"></circle><circle r="3.578709378300581" cx="525.9492755216643" cy="460.06648536157456" opacity="0.25338303122023986"></circle><circle r="3.985685442434635" cx="486.36669115986797" cy="9.741645263838032" opacity="0.18631986694424285"></circle><circle r="4.136454618544209" cx="758.8621269543456" cy="190.33039365638604" opacity="0.7208782904892734"></circle><circle r="4.8216377533585835" cx="602.2535056589426" cy="10.054706274137068" opacity="0.7301655324272874"></circle><circle r="6.423678798998096" cx="17.169663183294396" cy="641.4840143127457" opacity="0.1425095796305536"></circle><circle r="7.1297703541114" cx="596.9718264722745" cy="434.5904582099697" opacity="0.644991139258245"></circle><circle r="6.763557713558068" cx="786.0653737648211" cy="413.1749905758745" opacity="0.5288962243758998"></circle><circle r="3.4785736051731826" cx="789.1231900455618" cy="301.7572554491233" opacity="0.7618234821886761"></circle><circle r="6.679567913538934" cx="553.0894010483282" cy="269.7524103480604" opacity="0.44521932632015204"></circle><circle r="10.233035372213582" cx="562.0000330805052" cy="539.1779960074789" opacity="0.35693407031415436"></circle><circle r="6.574987670411921" cx="498.4587286645978" cy="559.8325610061717" opacity="0.465906207572944"></circle><circle r="5.639799785913356" cx="77.6649728889044" cy="708.2901056507138" opacity="0.8011603530107979"></circle><circle r="7.342998136446792" cx="340.4092639153608" cy="519.3057008948404" opacity="0.45458403833494077"></circle><circle r="5.640236737045136" cx="487.2278348286196" cy="746.1286817136772" opacity="0.2719107956345468"></circle><circle r="6.164631202345216" cx="200.99166036299533" cy="49.49666699159767" opacity="0.1341592486091457"></circle><circle r="6.020884725807969" cx="686.1549189096522" cy="518.5805609781667" opacity="0.7507678137966597"></circle><circle r="5.147950468338066" cx="465.40797128718845" cy="698.5938549367806" opacity="0.5339811396292462"></circle><circle r="5.71557735732999" cx="267.55269138275975" cy="424.46754246436257" opacity="0.27104300927522473"></circle><circle r="6.776770468615197" cx="40.731337683318955" cy="179.60603429617152" opacity="0.7459023055823413"></circle><circle r="4.183204646522056" cx="460.9665559912193" cy="433.26842912933114" opacity="0.6572453708183394"></circle><circle r="6.9187461481119366" cx="260.7700025817422" cy="135.67755093860566" opacity="0.8439991911358569"></circle><circle r="8.34693492162514" cx="341.87264970496886" cy="296.3345219712021" opacity="0.5535369372695222"></circle><circle r="4.138177944843989" cx="615.5300309024504" cy="298.1947621094006" opacity="0.40673268042324984"></circle><circle r="5.087761808340426" cx="759.7319941230221" cy="26.068620410727547" opacity="0.5718001340064821"></circle><circle r="9.11918643064228" cx="449.30613294708616" cy="253.9179864764349" opacity="0.5802397101479558"></circle><circle r="4.623159855553053" cx="375.4846371892279" cy="314.09892403917513" opacity="0.19362804665540315"></circle><circle r="3.6874711960835227" cx="118.53168633631378" cy="270.00777970210186" opacity="0.11530422663721278"></circle><circle r="3.0528290462315173" cx="324.7236144095061" cy="744.9155155023451" opacity="0.11506715949601523"></circle><circle r="3.6938301864868857" cx="101.98236866728355" cy="141.75404529567928" opacity="0.6990270486122436"></circle><circle r="6.803568398523903" cx="726.3565200671771" cy="426.2417245618038" opacity="0.22180780297574154"></circle><circle r="6.958071444808317" cx="383.9171194328969" cy="759.8537021336393" opacity="0.9311705322154277"></circle><circle r="3.186699881303211" cx="404.9574960702142" cy="679.2638414818268" opacity="0.700666455764807"></circle><circle r="6.016451812019858" cx="369.56361240252556" cy="183.01094340572615" opacity="0.8647525446110055"></circle><circle r="3.1778315744231653" cx="359.9510399621153" cy="552.4311031410642" opacity="0.853132072043171"></circle><circle r="6.7427960012318255" cx="777.5792621133372" cy="136.88697632455742" opacity="0.43917889163276436"></circle><circle r="5.814715504891117" cx="517.34227766012" cy="678.2571762176769" opacity="0.6398736329111718"></circle><circle r="4.757514367249943" cx="468.22776326186386" cy="172.06177323897538" opacity="0.4333752914430903"></circle><circle r="5.59018135645057" cx="479.0552248440453" cy="211.80184344736506" opacity="0.8646769153474788"></circle><circle r="6.351486268732823" cx="560.8676718827008" cy="710.9545037374047" opacity="0.725365509043352"></circle><circle r="8.51690779902124" cx="775.7103927960837" cy="347.9230777299628" opacity="0.3722597444975708"></circle><circle r="3.240474441928515" cx="296.58567351077596" cy="692.6036698960381" opacity="0.44003497411565484"></circle><circle r="7.0234307201275215" cx="588.3821926003739" cy="227.6828722093752" opacity="0.8665190692702558"></circle><circle r="3.902385411472271" cx="10.34860969522281" cy="155.11750878621723" opacity="0.5156847170703301"></circle><circle r="6.609422577666975" cx="579.3797615482191" cy="291.5994442005196" opacity="0.26558063057036196"></circle><circle r="4.467645308284545" cx="86.42518862396261" cy="67.0150220608418" opacity="0.27055721170944114"></circle><circle r="5.056393917135567" cx="433.85946152452703" cy="699.9496375533013" opacity="0.9893927649939448"></circle><circle r="7.076992222150683" cx="466.77000777468305" cy="578.1381527634439" opacity="0.7084316945335525"></circle><circle r="4.429087757230218" cx="759.69983331233" cy="390.5225433805919" opacity="0.9539341667253778"></circle><circle r="6.063543117775001" cx="687.3806654655311" cy="219.49139140248658" opacity="0.9172339413535319"></circle><circle r="6.668713357298365" cx="653.476407914572" cy="390.7605894459804" opacity="0.8273130471921364"></circle><circle r="9.116017949290349" cx="538.928758623815" cy="651.8467041909931" opacity="0.6243003421699586"></circle><circle r="4.688051872140452" cx="609.4828139732828" cy="402.45932165178994" opacity="0.9665469136831815"></circle><circle r="4.904129605816773" cx="391.3355709389888" cy="527.9559103476341" opacity="0.8326108319062686"></circle><circle r="5.794031869434571" cx="242.7132047504821" cy="779.15475979579" opacity="0.10848331481397143"></circle><circle r="6.693263617612724" cx="104.15728419206235" cy="543.3132127686096" opacity="0.20214519112648516"></circle><circle r="9.43272564718383" cx="607.9278566351957" cy="780.886504176438" opacity="0.7836005384092688"></circle><circle r="5.373929023350839" cx="695.5504404595433" cy="436.1128233137769" opacity="0.525238192194633"></circle><circle r="6.291065628693485" cx="727.7985558546176" cy="781.8900098536426" opacity="0.5638085412011293"></circle><circle r="5.59768434966656" cx="224.67738188572616" cy="375.7816720675778" opacity="0.5218419975844832"></circle><circle r="7.5314468129381265" cx="337.92210170503307" cy="157.4312175060724" opacity="0.7784802534154183"></circle><circle r="5.660348184502407" cx="83.7357107448233" cy="570.1699575438583" opacity="0.4373683422234256"></circle><circle r="7.137075074108706" cx="236.2031985226385" cy="566.5381634257072" opacity="0.3567982567661877"></circle><circle r="6.675378483903714" cx="786.5877450608997" cy="380.0829276707111" opacity="0.5915968015961542"></circle><circle r="6.153723647931791" cx="760.8892943976286" cy="495.24052308077114" opacity="0.6847755682690593"></circle><circle r="2.7122329211254805" cx="422.6437917688185" cy="455.2969810691551" opacity="0.29005185057689276"></circle><circle r="6.134409254355585" cx="401.822743178358" cy="66.79898775618732" opacity="0.5811710356156694"></circle><circle r="4.151234313374178" cx="261.1000513876658" cy="375.36029623098153" opacity="0.8045321610801446"></circle><circle r="4.045526690581406" cx="336.499028099073" cy="599.0431197621177" opacity="0.4487939650657382"></circle><circle r="3.9671283048683437" cx="378.7505029472279" cy="416.0170767795917" opacity="0.3869426257056341"></circle><circle r="5.5539868587430785" cx="449.6953308891333" cy="621.081380019048" opacity="0.36069182276896394"></circle><circle r="7.7630578147090725" cx="100.80626645446496" cy="386.36103176570685" opacity="0.3163085367052884"></circle><circle r="5.414091291783523" cx="227.3520559482768" cy="293.2246090062728" opacity="0.7214188931292606"></circle><circle r="8.621707015446798" cx="174.0003619625726" cy="347.4894879198469" opacity="0.7428600881658431"></circle><circle r="6.106961005835645" cx="96.68378470040803" cy="216.75293223679887" opacity="0.591113118983781"></circle><circle r="4.392852854294232" cx="420.7850815408305" cy="507.1078542587262" opacity="0.9099628081914768"></circle><circle r="8.447128509426882" cx="375.4464292547385" cy="218.21945778645863" opacity="0.9182953844956362"></circle><circle r="4.332493982487202" cx="598.733505579756" cy="560.3417093362494" opacity="0.15747967687661565"></circle><circle r="7.533497470943109" cx="41.98856982311771" cy="620.8003421283216" opacity="0.4584706283683354"></circle><circle r="4.041272271190367" cx="571.1497061522316" cy="408.5129930097126" opacity="0.6711987805112569"></circle><circle r="5.415373944648901" cx="300.95615732205215" cy="164.21792378134265" opacity="0.8277849436144397"></circle><circle r="4.257054704685261" cx="532.7843848400647" cy="59.979869038637155" opacity="0.1873029035145693"></circle><circle r="7.510927921557072" cx="679.5748173911032" cy="290.3544529538131" opacity="0.8541987729162801"></circle><circle r="6.733962472596057" cx="646.6294592212158" cy="774.1484956324147" opacity="0.7751030794956852"></circle><circle r="3.933727281196831" cx="266.62725150102506" cy="169.12941773678375" opacity="0.18120531593110342"></circle><circle r="5.226705958781178" cx="304.22089231265556" cy="136.44688367329792" opacity="0.6320739878513286"></circle><circle r="5.266752263966531" cx="650.3242964836807" cy="574.7280350825301" opacity="0.5446379671284934"></circle><circle r="4.30509992848801" cx="564.9553167423016" cy="769.5554005870192" opacity="0.6844907776549033"></circle><circle r="5.422894403399372" cx="157.780831812431" cy="276.33159814854025" opacity="0.8628307730273329"></circle><circle r="4.664312114048594" cx="788.2661798695649" cy="603.2737214239249" opacity="0.7959922589700894"></circle><circle r="5.364635198609728" cx="324.6104184203181" cy="723.2516215549206" opacity="0.7479148398457245"></circle><circle r="4.5293771099193965" cx="632.8677547771434" cy="206.35442102747996" opacity="0.7542424826794701"></circle><circle r="6.146404347964003" cx="652.3242368912914" cy="446.5207733276813" opacity="0.8699345549295711"></circle><circle r="3.774970673213874" cx="785.937123148886" cy="538.379726885061" opacity="0.4699667978708638"></circle><circle r="5.642951335144469" cx="231.9717942795563" cy="704.6962680031903" opacity="0.3591934029958923"></circle><circle r="4.280312069358576" cx="35.525465762949736" cy="498.5733775314772" opacity="0.343462909800877"></circle><circle r="7.5703806096958175" cx="101.63827972112014" cy="647.3318193302166" opacity="0.7529890316953846"></circle><circle r="7.55136866878664" cx="235.31775030595728" cy="162.08289374154057" opacity="0.44331283649028796"></circle><circle r="9.568591421519859" cx="106.1541851094868" cy="779.069319110039" opacity="0.14894365023627604"></circle><circle r="3.540459634151871" cx="698.3325032372683" cy="262.67920639754055" opacity="0.8858285383351068"></circle><circle r="3.7674170452453946" cx="233.81280832111344" cy="327.6295021309119" opacity="0.7892026224545067"></circle><circle r="4.583184790877119" cx="177.36833564413502" cy="789.2044316978552" opacity="0.7001466502539256"></circle><circle r="4.966351895424043" cx="400.45420942686906" cy="429.4808827610906" opacity="0.344201768643525"></circle><circle r="3.8950696466497194" cx="134.65682624566" cy="330.84324026776915" opacity="0.23952081224431965"></circle><circle r="5.308504601416559" cx="550.6856946482407" cy="789.3446263871737" opacity="0.2028658871814154"></circle><circle r="6.831820611461254" cx="408.91257171649664" cy="633.2829398108141" opacity="0.3494354071608917"></circle><circle r="4.901631515526054" cx="432.53456559776316" cy="416.7454372910284" opacity="0.7319313804046912"></circle><circle r="7.916308664145355" cx="539.991275938179" cy="313.5269514520291" opacity="0.5498635000050955"></circle><circle r="6.036704162441064" cx="218.37415110977608" cy="122.07626240233054" opacity="0.9456320037406583"></circle><circle r="3.7873224147262965" cx="24.50216657995109" cy="572.9817678959391" opacity="0.5165385262851595"></circle><circle r="5.550756698211904" cx="43.046868410987926" cy="465.27599321391915" opacity="0.581434237800555"></circle><circle r="4.030562082502638" cx="428.1995401724103" cy="99.36232784468996" opacity="0.7059067341527506"></circle><circle r="5.599086222331051" cx="785.179216060544" cy="687.1668963579008" opacity="0.4189136010736684"></circle><circle r="8.378416202580022" cx="575.5349055265937" cy="672.7292453703986" opacity="0.3262408194893378"></circle><circle r="4.970221847266633" cx="60.909264456928625" cy="81.80785212818319" opacity="0.7969289769642525"></circle><circle r="6.392635127568498" cx="784.8131229501012" cy="722.4898009648423" opacity="0.9252212709509253"></circle><circle r="5.631960344559122" cx="194.6365687593038" cy="435.72079141494845" opacity="0.6642684195611505"></circle><circle r="6.80140148332471" cx="678.332842908098" cy="754.0578480505224" opacity="0.9666259162794507"></circle><circle r="5.455306416662596" cx="634.0785680869088" cy="181.70942918317908" opacity="0.9381590323840157"></circle><circle r="3.6817418618464517" cx="380.15065406510905" cy="480.9861417190524" opacity="0.6173119607348974"></circle><circle r="5.349356574797218" cx="412.47940759215504" cy="545.3811083784194" opacity="0.947385424183791"></circle><circle r="8.436823078239279" cx="342.6322265970404" cy="17.479151163831816" opacity="0.5203264777132359"></circle><circle r="5.154270397273484" cx="556.4361857218929" cy="465.8107441113128" opacity="0.6387074885507489"></circle><circle r="5.071317138850385" cx="619.211977917167" cy="733.2746045716698" opacity="0.6730780147906064"></circle><circle r="5.933292516232304" cx="621.9403475828029" cy="75.93059106767947" opacity="0.9699827703412842"></circle><circle r="7.129594994343753" cx="626.2433838926939" cy="600.6128562131038" opacity="0.1241274427539715"></circle><circle r="6.001309750195148" cx="183.00941422352412" cy="239.37596345635745" opacity="0.3049232224843269"></circle><circle r="6.291242032469863" cx="470.58952140586047" cy="286.84973219005104" opacity="0.5638110820995308"></circle><circle r="5.885825102590068" cx="663.5962788901417" cy="153.3969712455053" opacity="0.6106940398440844"></circle><circle r="7.0153585215108" cx="168.89338078780676" cy="746.398352025466" opacity="0.8036812292426682"></circle><circle r="5.052926016634379" cx="155.9269723306824" cy="236.83482610234643" opacity="0.6933077580093414"></circle><circle r="7.898514415500035" cx="142.49107779293178" cy="776.8381213117623" opacity="0.9266801119276145"></circle><circle r="4.246323463551413" cx="482.9733876600279" cy="420.7587957113696" opacity="0.8690647043938178"></circle><circle r="8.565310570226545" cx="655.8532604564991" cy="643.298527791468" opacity="0.7274071134761083"></circle><circle r="6.827304771807678" cx="93.0903711593804" cy="250.80088762270768" opacity="0.5895970411752445"></circle><circle r="7.473557381748708" cx="380.63424313606487" cy="19.432260507594567" opacity="0.7302827316193183"></circle><circle r="4.036874099112974" cx="113.31908244552093" cy="580.4920363457004" opacity="0.6595175406063686"></circle><circle r="7.04711158410511" cx="413.116199249594" cy="226.50807757408805" opacity="0.26866130394106114"></circle><circle r="7.454580698060112" cx="262.45413527473926" cy="546.8578460239718" opacity="0.34780169275376005"></circle><circle r="7.580162346428368" cx="155.37789101355125" cy="385.31032277669595" opacity="0.46581722208095566"></circle><circle r="3.6855579927224036" cx="176.53813184409157" cy="8.389281692501832" opacity="0.7988333783103331"></circle><circle r="3.2102898782204727" cx="15.025072388883508" cy="82.28103972740193" opacity="0.9729813900113028"></circle><circle r="5.612463137288338" cx="109.63590190977744" cy="166.62484609066277" opacity="0.31661905057060774"></circle><circle r="6.665013358811988" cx="362.07093330896015" cy="736.2069464653621" opacity="0.6676237663170301"></circle><circle r="4.223563045095147" cx="666.2399287077927" cy="319.9190322929924" opacity="0.6308621295459196"></circle><circle r="6.106671422769118" cx="587.8994167799183" cy="462.4031308585121" opacity="0.7311730971787469"></circle><circle r="5.037971634647747" cx="645.8599137922636" cy="283.59100002653906" opacity="0.46886820533853124"></circle><circle r="4.169165504239846" cx="573.3313723605032" cy="323.70824213178696" opacity="0.6178581952773596"></circle><circle r="7.48044555801015" cx="403.66880744118805" cy="131.2410448894421" opacity="0.4507264106863649"></circle><circle r="6.8928688684966435" cx="755.0818183233298" cy="690.7955235510227" opacity="0.7075600541222997"></circle><circle r="6.361849594272378" cx="477.31355042323986" cy="603.8255181452091" opacity="0.3658211742713895"></circle><circle r="7.645384030464534" cx="67.21689002500958" cy="488.30384405332074" opacity="0.46359400369132164"></circle><circle r="10.282359376300187" cx="128.7769230295912" cy="727.1344007393387" opacity="0.3734034246742466"></circle><circle r="6.989286734817204" cx="559.3478753086001" cy="235.32214169224898" opacity="0.4553516054347929"></circle><circle r="4.8685770880855355" cx="226.95590201799564" cy="16.931908073397953" opacity="0.2814301055906032"></circle><circle r="6.8654219446837335" cx="464.9745667639024" cy="355.69397035770066" opacity="0.24470014420267797"></circle><circle r="4.832485921026871" cx="321.4819384911422" cy="331.39833187336075" opacity="0.9895673847196883"></circle><circle r="5.175409975994898" cx="604.6589420838726" cy="517.3394383092166" opacity="0.23765974003721177"></circle><circle r="7.841694730315892" cx="613.5552202425089" cy="675.1583655596683" opacity="0.6803747881097184"></circle><circle r="6.11567892956254" cx="786.0943892860357" cy="42.57896591475937" opacity="0.6214310477267063"></circle><circle r="10.014372325752412" cx="467.0622221909144" cy="777.7655695736204" opacity="0.6321021938789733"></circle><circle r="6.106195125609503" cx="745.9261556615467" cy="592.7112000944236" opacity="0.2131313974472263"></circle><circle r="4.934248633619823" cx="16.043242277047774" cy="517.3773958566181" opacity="0.8158560678738767"></circle><circle r="6.239057631936274" cx="371.27737371798867" cy="636.2978747687083" opacity="0.5953603542437611"></circle><circle r="7.533856113392645" cx="747.7085159138699" cy="554.8376867590822" opacity="0.5508428363689175"></circle><circle r="3.378681410835507" cx="788.6301399941498" cy="496.9999702180798" opacity="0.19741660177333642"></circle><circle r="4.997400701996791" cx="292.83061246507225" cy="342.2002662650409" opacity="0.4936631705643184"></circle><circle r="4.649038799508363" cx="375.9187763721566" cy="664.0279125477659" opacity="0.7073696083844554"></circle><circle r="6.182054077865398" cx="133.64632804867563" cy="556.5895540778477" opacity="0.30907287810185824"></circle><circle r="6.566307847537279" cx="504.32365293208284" cy="302.6509906370731" opacity="0.4435298730581524"></circle><circle r="4.326782536726903" cx="466.7629597725138" cy="323.1775180944617" opacity="0.2620212540695116"></circle><circle r="4.756239382613527" cx="722.3857707037711" cy="606.5618884081769" opacity="0.7348122603988565"></circle><circle r="5.611621151410798" cx="394.1487865462735" cy="97.61597939864306" opacity="0.22748295118961798"></circle><circle r="4.910551100231025" cx="255.6626775789052" cy="728.63543597776" opacity="0.5138981316131068"></circle><circle r="5.2797145427317" cx="357.7479016687106" cy="357.5002776046015" opacity="0.4907146899942889"></circle><circle r="5.169225163600097" cx="726.5771886514336" cy="76.2394134433413" opacity="0.8384130709114145"></circle><circle r="7.6042060017674515" cx="270.8500387165831" cy="781.3178410008377" opacity="0.10536815882546974"></circle><circle r="4.874435094859214" cx="390.28534367765707" cy="451.6229578519145" opacity="0.6984870988473919"></circle><circle r="3.9791781614453323" cx="696.8460391413197" cy="357.7874760912988" opacity="0.38099066589183905"></circle><circle r="5.695219233924627" cx="625.7732662041284" cy="559.0754506472316" opacity="0.30070557351660543"></circle><circle r="4.8854282401113345" cx="715.5654387515326" cy="563.8163127952417" opacity="0.6706554833934107"></circle><circle r="7.481822261855809" cx="93.13588105753564" cy="288.76289217706704" opacity="0.942045609571898"></circle><circle r="5.431458442368028" cx="307.8692693455348" cy="21.604856657975024" opacity="0.5479823415477203"></circle><circle r="6.043783894302609" cx="111.56487526404749" cy="480.993288488094" opacity="0.5758411932705232"></circle><circle r="5.436445535341618" cx="252.48562516092244" cy="396.22872689680094" opacity="0.5487992882973756"></circle><circle r="6.030146073995849" cx="599.9954438663005" cy="323.16393992342574" opacity="0.4158950606946078"></circle><circle r="5.2668953395877365" cx="67.12879159874967" cy="418.6345759974464" opacity="0.6924600451399533"></circle><circle r="6.873865344325491" cx="485.1882444736407" cy="77.10341047953548" opacity="0.8575191388061439"></circle><circle r="3.83219154955267" cx="472.16795585222724" cy="640.5335380791225" opacity="0.14929358032319512"></circle><circle r="3.7156678838497426" cx="790.3859825144485" cy="629.4364844868412" opacity="0.38048515756807966"></circle><circle r="7.8618361784696535" cx="669.1612364095062" cy="707.1583975353279" opacity="0.2018053605248323"></circle><circle r="7.6364751727140945" cx="442.7660315192859" cy="140.94077521834862" opacity="0.37109247857823324"></circle><circle r="3.658261874410049" cx="141.4974501762019" cy="157.680581183968" opacity="0.47569449601707214"></circle><circle r="7.254388608846119" cx="232.94864499527816" cy="652.5554002506235" opacity="0.18878651775566507"></circle><circle r="3.6755799044198043" cx="555.4348051774475" cy="595.2120225478054" opacity="0.7002761430944208"></circle><circle r="4.191181233869925" cx="773.6974586486815" cy="469.1303325169761" opacity="0.5218392599162915"></circle><circle r="8.069064489729268" cx="671.8032139483494" cy="100.40811534653362" opacity="0.8449151236627457"></circle><circle r="6.960037417816921" cx="483.2688218842345" cy="241.29778118714273" opacity="0.8976405037019278"></circle><circle r="4.7577963828773555" cx="28.589269185173293" cy="781.9267658256985" opacity="0.8209039656257725"></circle></g></svg>