<svg xmlns="http://www.w3.org/2000/svg" version="1.1" xmlns:xlink="http://www.w3.org/1999/xlink" xmlns:svgjs="http://svgjs.dev/svgjs" viewBox="0 0 800 800"><defs><filter id="uuunion-blur" x="-100%" y="-100%" width="400%" height="400%" color-interpolation-filters="sRGB">
        <feGaussianBlur in="SourceGraphic" stdDeviation="0 0" result="blur"></feGaussianBlur>
        <feDropShadow stdDeviation="12.307692307692308" in="blur" dx="10" dy="10" flood-color="rgb(42%, 74%, 100%)" flood-opacity="0.25" x="0%" y="0%" width="100%" height="100%"></feDropShadow>
      </filter><filter id="uuunion-blur2" x="-100%" y="-100%" width="400%" height="400%" color-interpolation-filters="sRGB">
        <feGaussianBlur in="SourceGraphic" stdDeviation="0 0" result="blur"></feGaussianBlur>
        <feDropShadow stdDeviation="12.307692307692308" in="blur" dx="-10" dy="-10" flood-color="rgb(42%, 74%, 100%)" flood-opacity="0.25" x="0%" y="0%" width="100%" height="100%"></feDropShadow>
      </filter><linearGradient gradientTransform="rotate(0, 0.5, 0.5)" x1="50%" y1="0%" x2="50%" y2="100%" id="uuunion-grad"><stop stop-color="hsl(90, 38%, 73%)" offset="10%"></stop><stop stop-color="rgb(42%, 74%, 100%)" offset="90%"></stop></linearGradient><linearGradient gradientTransform="rotate(135, 0.5, 0.5)" x1="50%" y1="0%" x2="50%" y2="100%" id="uuunion-grad2"><stop stop-color="hsl(90, 38%, 73%)" offset="25%"></stop><stop stop-color="rgb(42%, 74%, 100%)" offset="100%"></stop></linearGradient><linearGradient gradientTransform="rotate(333, 0.5, 0.5)" x1="50%" y1="0%" x2="50%" y2="100%" id="uuunion-grad3"><stop stop-color="hsl(90, 38%, 73%)" offset="0%"></stop><stop stop-color="rgb(42%, 74%, 100%)" offset="75%"></stop></linearGradient></defs><path d="M-76.6 -82.66Q-62.42 -80.34 -48.24 -77.98 -34.06 -75.89 -19.87 -74.38 -5.69 -73.64 8.48 -73.79 22.66 -74.8 36.84 -76.54 51.03 -78.75 65.21 -81.14 79.39 -83.36 93.57 -85.12 107.75 -86.17 121.94 -86.36 136.12 -85.66 150.3 -84.18 164.48 -82.11 178.66 -79.75 192.85 -77.43 207.03 -75.46 221.21 -74.12 235.39 -73.6 249.57 -73.97 263.75 -75.17 277.94 -77.05 292.12 -79.33 306.3 -81.71 320.48 -83.85 334.66 -85.45 348.85 -86.3 363.03 -86.27 377.21 -85.37 391.39 -83.72 405.57 -81.55 419.76 -79.17 433.94 -76.9 448.12 -75.06 462.3 -73.91 476.48 -73.61 490.67 -74.19 504.85 -75.58 519.03 -77.58 533.21 -79.92 547.39 -82.27 561.58 -84.3 575.76 -85.74 589.94 -86.37 604.12 -86.12 618.3 -85.02 632.49 -83.22 646.67 -80.98 660.85 -78.59 675.03 -76.4 689.21 -74.71 703.39 -73.76 717.58 -73.67 731.76 -74.46 745.94 -76.02 760.12 -78.13 774.3 -80.5 788.49 -82.81 802.67 -84.72 816.85 -85.97 831.03 -86.39 829.72 -72.07 834.19 -57.74 843.93 -43.42 857.82 -29.09 874.27 -14.77 891.37 -0.44 907.17 13.87 919.84 28.2 927.92 42.52 930.48 56.85 927.24 71.17 918.56 85.5 905.44 99.82 889.39 114.15 872.26 128.47 856.02 142.8 842.54 157.12 833.37 171.45 829.57 185.77 831.57 200.1 839.15 214.42 851.42 228.75 866.99 243.07 884.05 257.4 900.65 271.72 914.87 286.05 925.07 300.37 930.09 314.7 929.34 329.02 922.91 343.35 911.54 357.67 896.54 372 879.64 386.32 862.78 400.65 847.89 414.97 836.71 429.3 830.5 443.62 829.99 457.95 835.24 472.27 845.64 486.6 859.99 500.92 876.65 515.25 893.69 529.57 909.15 543.9 921.26 558.22 928.62 572.55 930.38 586.87 926.34 601.2 916.97 615.52 903.35 629.85 887.03 644.17 869.91 658.5 853.94 672.82 840.98 687.15 832.5 701.47 829.5 715.8 832.3 730.12 840.59 744.45 853.42 758.77 869.31 773.1 886.43 787.42 902.8 801.75 916.56 816.07 926.1 830.4 910.33 833.68 894.56 843.41 878.79 858.21 863.02 876.05 847.25 894.43 831.48 910.81 815.71 922.9 799.94 929.03 784.17 928.35 768.4 920.94 752.63 907.85 736.86 890.88 721.08 872.4 705.31 854.97 689.54 841.03 673.77 832.5 658 830.57 642.23 835.51 626.46 846.63 610.69 862.39 594.92 880.6 579.15 898.72 563.38 914.24 547.61 925 531.84 929.51 516.07 927.13 500.3 918.21 484.53 903.97 468.76 886.4 452.99 867.94 437.22 851.15 421.45 838.38 405.68 831.39 389.91 831.15 374.14 837.7 358.37 850.14 342.6 866.72 326.83 885.14 311.06 902.85 295.29 917.39 279.52 926.73 263.75 929.57 247.98 925.52 232.21 915.15 216.44 899.88 200.67 881.86 184.89 863.58 169.12 847.57 153.35 836.08 137.58 830.69 121.81 832.15 106.04 840.26 90.27 853.89 74.5 871.15 58.73 889.64 42.96 906.79 27.19 920.22 11.42 928.05 -4.34 929.21 -20.11 923.52 -35.88 911.79 -51.65 895.63 -67.42 877.31 -83.19 859.35 -82.53 844.64 -81.58 829.92 -80.44 815.2 -79.25 800.48 -78.15 785.76 -77.26 771.04 -76.69 756.32 -76.5 741.6 -76.7 726.88 -77.29 712.16 -78.19 697.44 -79.3 682.72 -80.48 668.01 -81.61 653.29 -82.56 638.57 -83.21 623.85 -83.49 609.13 -83.36 594.41 -82.85 579.69 -82.02 564.97 -80.94 550.25 -79.76 535.53 -78.61 520.81 -77.61 506.1 -76.89 491.38 -76.53 476.66 -76.56 461.94 -76.99 447.22 -77.77 432.5 -78.8 417.78 -79.97 403.06 -81.14 388.34 -82.18 373.62 -82.97 358.9 -83.42 344.19 -83.47 329.47 -83.12 314.75 -82.41 300.03 -81.43 285.31 -80.28 270.59 -79.09 255.87 -78.01 241.15 -77.16 226.43 -76.64 211.71 -76.5 196.99 -76.76 182.28 -77.4 167.56 -78.33 152.84 -79.46 138.12 -80.65 123.4 -81.76 108.68 -82.67 93.96 -83.27 79.24 -83.49 64.52 -83.32 49.8 -82.76 35.08 -81.88 20.37 -80.78 5.65 -79.6 -9.06 -78.46 -23.78 -77.5 -38.5 -76.82 -53.22 -76.51 -67.94 -76.6 -82.66" fill="url(#uuunion-grad)"></path><path d="M-76.6 -82.66Q-76.51 -67.94 -76.82 -53.22 -77.5 -38.5 -78.46 -23.78 -79.6 -9.06 -80.78 5.65 -81.88 20.37 -82.76 35.08 -83.32 49.8 -83.49 64.52 -83.27 79.24 -82.67 93.96 -81.76 108.68 -80.65 123.4 -79.46 138.12 -78.33 152.84 -77.4 167.56 -76.76 182.28 -76.5 196.99 -76.64 211.71 -77.16 226.43 -78.01 241.15 -79.09 255.87 -80.28 270.59 -81.43 285.31 -82.41 300.03 -83.12 314.75 -83.47 329.47 -83.42 344.19 -82.97 358.9 -82.18 373.62 -81.14 388.34 -70.96 395 -60.77 401.98 -50.59 408.82 -40.4 415.12 -30.22 420.48 -20.04 424.57 -0.95 427.76 2.35 427.96 15.28 419.67 28.38 408.95 41.61 396.26 54.93 382.27 68.32 367.75 81.73 353.49 95.11 340.26 108.42 328.71 121.62 319.31 134.66 312.32 147.5 307.74 160.12 305.37 172.47 304.79 184.53 305.42 196.3 306.56 207.77 307.5 218.95 307.55 229.83 306.13 240.46 302.82 250.86 297.37 261.07 289.77 271.14 280.19 281.12 269.01 291.08 256.74 301.09 243.98 311.2 231.37 321.48 219.52 332.01 208.94 342.85 200.01 354.05 192.94 365.67 187.76 377.76 184.31 390.35 182.28 403.46 181.22 417.12 180.6 431.31 179.87 446.03 178.5 461.25 176.05 476.94 172.19 493.03 166.73 509.47 159.64 526.18 151.07 543.09 141.29 560.08 130.67 577.08 119.66 593.98 108.74 610.67 98.35 627.05 88.86 643.02 80.56 658.5 73.59 673.39 67.98 687.61 63.6 701.12 60.23 713.85 57.55 725.78 55.19 736.88 52.76 747.16 49.89 756.64 46.28 765.36 41.71 773.36 36.07 780.73 29.34 787.56 21.62 793.94 13.12 800 4.08 782.18 -13.74 767.14 -31.56 757.24 -49.38 754 -67.2 757.95 -85.02 768.46 -102.84 785.4 -129.01 771.96 -136.59 757.02 -136.3 742.08 -136.51 727.15 -137.2 712.21 -138.27 697.27 -139.58 682.33 -140.95 667.39 -142.18 652.45 -143.12 637.51 -143.63 622.57 -143.64 607.63 -143.14 592.69 -142.22 577.75 -140.99 562.81 -139.63 547.87 -138.31 532.93 -137.23 517.99 -136.52 503.05 -136.3 488.11 -136.58 473.17 -137.33 458.23 -138.44 443.29 -139.77 428.35 -141.13 413.41 -142.33 398.47 -143.22 383.53 -143.66 368.59 -143.6 353.65 -143.04 338.71 -142.06 323.77 -140.81 308.83 -139.44 293.89 -138.14 278.95 -137.1 264.01 -136.46 249.07 -136.3 234.13 -136.65 219.19 -137.46 204.25 -138.62 189.31 -139.96 174.37 -141.31 159.43 -142.48 144.49 -143.31 129.55 -143.68 114.61 -143.55 99.67 -142.93 84.73 -141.9 69.79 -140.62 54.85 -139.25 39.91 -137.98 24.97 -136.99 10.03 -136.41 -4.9 -136.32 -19.84 -136.74 -34.78 -137.61 -49.72 -138.8 -64.66 -140.16 -79.6 -141.49 -94.54 -142.62 -109.48 -143.39 -124.42 -143.69 -132.53 -131 -113.65 -114.93 -104.07 -107.35 -94.72 -99.45 -85.57 -91.21 -76.6 -82.66" fill="url(#uuunion-grad2)" filter="url(#uuunion-blur)"></path><path d="M815.07 411.42Q825.25 404.74 835.44 397.77 845.62 390.93 855.81 384.66 865.99 379.34 876.18 375.3 883 379.56 862.78 400.65 847.89 414.97 836.71 429.3 830.5 443.62 829.99 457.95 835.24 472.27 845.64 486.6 859.99 500.92 876.65 515.25 893.69 529.57 909.15 543.9 921.26 558.22 928.62 572.55 930.38 586.87 926.34 601.2 916.97 615.52 903.35 629.85 887.03 644.17 869.91 658.5 853.94 672.82 840.98 687.15 832.5 701.47 829.5 715.8 832.3 730.12 840.59 744.45 853.42 758.77 869.31 773.1 886.43 787.42 902.8 801.75 916.56 816.07 926.1 830.4 911.63 833.16 897.15 841.41 882.68 854.19 868.21 869.99 853.74 886.97 839.26 903.13 824.79 916.57 810.32 925.73 795.85 929.52 781.37 927.51 766.9 919.92 752.43 907.65 737.96 892.14 723.48 875.2 709.01 858.83 694.54 844.94 680.07 835.15 665.59 830.63 651.12 831.9 636.65 838.8 622.18 850.54 607.7 865.73 593.23 882.59 578.76 899.15 564.29 913.46 549.81 923.85 535.34 929.1 520.87 928.58 506.4 922.37 491.92 911.19 477.45 896.35 462.98 879.59 448.51 862.88 434.03 848.18 419.56 837.21 405.09 831.25 390.61 831.01 376.14 836.52 361.67 847.12 347.2 861.58 332.72 878.2 318.25 895.03 303.78 910.09 289.31 921.63 274.83 928.28 260.36 929.27 245.89 924.49 231.42 914.48 216.94 900.43 202.47 883.99 188 867.07 173.53 851.67 159.05 839.6 144.58 832.26 130.11 830.51 115.64 834.57 101.16 843.96 86.69 857.57 72.22 873.82 57.75 890.78 43.27 906.48 28.8 919.08 7.04 923.11 -0.39 908.68 -0.57 898.23 -0.77 887.78 -0.98 877.33 -1.19 866.88 -1.25 851.21 -0.61 846 11.26 837.25 23.04 824.34 34.73 807.97 46.39 789.15 58.06 769.11 69.78 749.22 81.6 730.78 93.55 714.94 105.68 702.61 118.01 694.31 130.59 690.2 143.43 690.02 156.54 693.12 169.94 698.57 183.61 705.21 197.55 711.77 211.73 717.02 226.13 719.88 240.7 719.5 255.4 715.35 270.18 707.28 284.98 695.54 299.73 680.68 314.38 663.6 328.86 645.36 343.1 627.14 357.04 610.08 370.64 595.23 383.83 583.36 396.57 574.98 408.84 570.24 420.61 568.95 431.87 570.57 442.62 574.3 452.87 579.15 462.65 584.02 472.01 587.86 480.98 589.7 489.64 588.79 498.06 584.67 506.32 577.17 514.51 566.49 522.73 553.08 531.06 537.69 539.62 521.23 548.49 504.71 557.78 489.1 567.57 475.31 577.94 464.01 588.97 455.67 600.7 450.42 613.18 448.12 626.45 448.33 640.51 450.39 655.35 453.46 670.96 456.63 687.29 458.99 704.29 459.72 721.88 458.19 739.97 453.98 758.45 446.94 777.21 437.2 796.13 425.16 815.07 411.42 815.07 411.42 815.07 411.42" fill="url(#uuunion-grad3)" filter="url(#uuunion-blur2)"></path></svg>